<svg viewBox="0 0 160 160" xmlns="http://www.w3.org/2000/svg">
  <defs>
    <radialGradient id="badgeRadial" cx="35%" cy="30%" r="75%">
      <stop offset="0%" stop-color="#1E3768"/>
      <stop offset="100%" stop-color="#0B1730"/>
    </radialGradient>
    <linearGradient id="orangeGrad" x1="0%" y1="0%" x2="100%" y2="100%">
      <stop offset="0%" stop-color="#FF8A4C"/>
      <stop offset="100%" stop-color="#E45A1F"/>
    </linearGradient>
    <filter id="softShadow" x="-40%" y="-40%" width="180%" height="180%">
      <feDropShadow dx="0" dy="3" stdDeviation="5" flood-color="#0B1730" flood-opacity="0.28"/>
    </filter>
  </defs>

  <g filter="url(#softShadow)">
    <circle cx="80" cy="80" r="72" fill="url(#badgeRadial)"/>
    <circle cx="80" cy="80" r="69.5" fill="none" stroke="#5577B8" stroke-width="1" stroke-opacity="0.45"/>
  </g>

  <path d="M 35.83 96.07 A 47 47 0 1 1 96.07 124.17"
        fill="none" stroke="#FFFFFF" stroke-opacity="0.92"
        stroke-width="5.5" stroke-linecap="round"/>
  <circle cx="96.07" cy="124.17" r="8.5" fill="url(#orangeGrad)"/>
  <circle cx="96.07" cy="124.17" r="8.5" fill="none" stroke="#0B1730" stroke-width="1.5" stroke-opacity="0.25"/>

  <path d="M80 50
           C 94 68, 101 80, 101 90
           a 21 21 0 1 1 -42 0
           C 59 80, 66 68, 80 50 Z"
        fill="#F4F7FF" opacity="0.95"/>
  <path d="M80 50
           C 94 68, 101 80, 101 90
           a 21 21 0 1 1 -42 0
           C 59 80, 66 68, 80 50 Z"
        fill="none" stroke="#16284F" stroke-width="1.4" opacity="0.18"/>
  <ellipse cx="71" cy="84" rx="5.5" ry="8" fill="#FFFFFF" opacity="0.55"/>
</svg>
